<svg id="Logo" xmlns="http://www.w3.org/2000/svg" viewBox="0 0 26.23 15">
  <defs>
    <style>
      .cls-1 {
        fill: #fff;
        fill-rule: evenodd;
      }
    </style>
  </defs>
  <path class="cls-1" d="M3.24,6.43c.06-.22.21-.36.34-.32s.2.27.14.49-.2.39-.34.33-.2-.26-.14-.5Zm.76-3C2.09,2.75.07,5.66,0,8.69S1.37,13,2.17,13A1.86,1.86,0,0,0,.92,15c1.32-1.61,3.07.88,3.83-2.32a1.57,1.57,0,0,1-1.55.38A4.81,4.81,0,0,0,6,8.68c.17-2.27-.15-4.12-1.64-4.48S2,6.55,2.06,7.84s.36,2,1,2,1.34-1.27,1.36-2.5-.36-1.9-1-1.55c.23-.67.62-.71.83-.69s1,.89.65,3.09S3.47,10.8,2.92,10.78s-1.44-.55-1.4-2.56c0-1.8.75-4.63,2.46-4.58.17,0,.17-.09,0-.17ZM11.88,3a.94.94,0,0,0,.6-1.08.76.76,0,0,0-.94-.63.94.94,0,0,0-.61,1.08.77.77,0,0,0,1,.63ZM23.46,5.28c-.9,0-1.06,1.39-.68,2-1.44,1.93-1.1-1.43-1.07-1.86,1,.09,2.1-1,2.29-3S22.57.73,22.57.73c-.68,0-2,1.43-2.24,4.22-.12,1.52-.88,2.36-.79,1.68l.62-4.18c0-2-1.67-.16-2,.69,0-2.44-1.59-.38-2,.51l.17-1.23-1.28.32-.41,3.14c-.55,2.29-1.12,2.57-1,2l1-7.43L13.33.77,12.6,6.21c-.55,2.27-1.14,3.12-1.07,2.17l.68-4.92-1.28.32-.36,2.65C10,8.7,9.26,10,9.41,8.9L10.09,4l-1.28.31L8.31,8c-.55,2.26-.92,2-.85,1.41l.68-4.92-1.27.33L6,11.25c-.09,1,.32,1.05.41,1,.48,0,1.2-1.44,1.71-2.71l-.16,1.19c-.11,1,.32,1.05.41,1,.47,0,1.53-2.3,2-3.7h0l-.29,2.1c-.11,1,.32,1,.41,1,.47,0,1.42-2.18,1.93-3.45l-.26,1.93c-.1,1,.32,1,.41,1,.48,0,1.45-1.91,1.91-3.33l-.36,2.73,1.27-.32L16,5.29c.2-1.56.85-2.08.86-1.69L16,9.66l1.27-.31.65-4.53c.15-1.34.78-2.12.89-1.73L18.15,8c-.21,1.58.8,2,2.15-1.84.08,2,.84,2.29,1.43,2.24s1-.75,1.17-.95c1.3,1.32,3.14-.4,3.17-2.32a16.3,16.3,0,0,0-.37-3l.35-.63c.15-.23.49-1.65-.46-1.53-1.51.34-1.29,2.08-1,3.88l-.77,1.44a1,1,0,0,0-.33,0Zm-1.69-.35.48-3.49c.09-.5.71-.61.64,0l-.44,3.25c-.09.59-.73.7-.68.28Zm2.84-.69c.23,1.63.41,3.15-.76,3.41a.54.54,0,0,1-.69-.59.9.9,0,0,0,1-.95.89.89,0,0,0-.2-.67l.62-1.2ZM25.84.36c.45.11,0,1.17-.17,1.38C25.56,1,25.54.48,25.84.36Z"/>
</svg>
